<svg width="192" height="192" viewBox="0 0 192 192" fill="none" xmlns="http://www.w3.org/2000/svg">
<rect width="192" height="192" rx="24" fill="#000000"/>
<circle cx="96" cy="96" r="80" fill="#0A100B" stroke="#BEF80D" stroke-width="4"/>
<g transform="translate(48, 84)">
<path d="M38.9828 1.41438C37.532 0.709212 35.5921 0.356628 33.1632 0.356628C30.768 0.356628 28.839 0.709212 27.3881 1.41438C25.935 2.11881 24.8067 3.35291 24.2351 4.86321C23.5867 6.45997 23.2625 8.56872 23.2625 11.1895C23.2625 13.8102 23.5867 15.9338 24.2351 17.5603C24.8057 19.0712 25.9342 20.3057 27.3881 21.0091C28.839 21.7143 30.768 22.0669 33.1632 22.0669C35.5583 22.0669 37.532 21.7143 38.9828 21.0091C40.4349 20.3094 41.5583 19.0727 42.1156 17.5603C42.7532 15.9689 43.0706 13.8453 43.0679 11.1895C43.0652 8.5336 42.7478 6.42485 42.1156 4.86321C41.5571 3.35141 40.4342 2.11511 38.9828 1.41438ZM38.2858 15.7609C38.1663 16.2448 37.949 16.699 37.6472 17.0956C37.3454 17.4922 36.9655 17.8228 36.531 18.0669C35.4765 18.5504 34.322 18.7754 33.1632 18.7234C32.0133 18.778 30.8674 18.5527 29.8238 18.0669C29.3923 17.8211 29.0155 17.4898 28.7165 17.0933C28.4176 16.6968 28.2027 16.2434 28.0852 15.7609C27.7007 14.2688 27.5301 12.7296 27.5786 11.1895C27.5267 9.65772 27.6945 8.12645 28.0771 6.64235C28.2002 6.1622 28.4172 5.71121 28.7157 5.31542C29.0141 4.91962 29.3879 4.58687 29.8157 4.33637C30.8546 3.83473 32.0028 3.60201 33.1551 3.65956C34.3163 3.60461 35.473 3.83709 36.5229 4.33637C36.9543 4.58435 37.3318 4.9161 37.6332 5.31211C37.9345 5.70813 38.1537 6.16041 38.2777 6.64235C38.6649 8.12569 38.8356 9.65726 38.7843 11.1895C38.8374 12.7293 38.6695 14.2687 38.2858 15.7609Z" fill="#BEF80D"/>
<mask id="mask0_86_4349" style="mask-type:luminance" maskUnits="userSpaceOnUse" x="44" y="0" width="20" height="24">
<path d="M59.9635 1.40623C58.5207 0.709165 56.5944 0.359285 54.1844 0.356583C51.7744 0.353881 49.8642 0.703761 48.4539 1.40623C47.0136 2.10727 45.8957 3.3324 45.3293 4.83075C44.6835 6.4113 44.362 8.50383 44.3647 11.1084C44.3674 13.7129 44.6889 15.8203 45.3293 17.4305C45.8977 18.9303 47.0186 20.1557 48.462 20.8551C49.8993 21.5575 51.8095 21.9074 54.1925 21.9047C55.0966 21.9093 55.9999 21.8497 56.8956 21.7264L56.9483 21.8682C57.1587 22.3873 57.5181 22.8325 57.9811 23.1477C58.4441 23.4628 58.9901 23.6339 59.5501 23.6392H61.2847C61.2847 23.6392 60.9199 22.7355 60.4741 21.6129C59.9757 20.3971 59.3596 18.9017 58.9665 18.0222L58.2978 16.5227C58.0461 15.9943 57.6499 15.5479 57.155 15.2352C56.6602 14.9225 56.0869 14.7563 55.5015 14.7558H54.0952L55.5826 18.4883C55.1139 18.5536 54.6413 18.5861 54.1682 18.5856C53.027 18.6399 51.8897 18.4174 50.8531 17.9371C50.4263 17.6915 50.0536 17.362 49.7576 16.9685C49.4616 16.5749 49.2483 16.1255 49.1307 15.6474C48.7466 14.1662 48.576 12.6378 48.6241 11.1084C48.575 9.58693 48.7456 8.06637 49.1307 6.59366C49.2528 6.11735 49.4678 5.66988 49.7634 5.27693C50.059 4.88398 50.4293 4.5533 50.8531 4.30389C51.8854 3.80861 53.0245 3.57744 54.1682 3.63115C55.3208 3.57928 56.4687 3.81025 57.5116 4.30389C57.9392 4.55127 58.3133 4.88104 58.6125 5.2741C58.9116 5.66715 59.1298 6.11567 59.2543 6.59366C59.6377 8.06662 59.8069 9.58714 59.7568 11.1084V12.9888L60.0446 13.6697C60.4498 14.5531 61.0496 16.0364 61.5522 17.2603L62.2249 18.9138C62.565 18.4561 62.8443 17.9561 63.0557 17.4265C63.6852 15.8459 64 13.7385 64 11.1043C64 8.47005 63.6852 6.37752 63.0557 4.82669C62.5023 3.33188 61.3951 2.10718 59.9635 1.40623Z" fill="white"/>
</mask>
<g mask="url(#mask0_86_4349)">
<rect x="44" y="0" width="20" height="24" fill="#BEF80D"/>
</g>
</g>
</svg>