<svg width="120" height="120" viewBox="0 0 120 120" fill="none" xmlns="http://www.w3.org/2000/svg">
<mask id="mask0_1071_4345" style="mask-type:alpha" maskUnits="userSpaceOnUse" x="0" y="0" width="120" height="120">
<circle cx="60" cy="60" r="60" fill="#F2F4F3"/>
</mask>
<g mask="url(#mask0_1071_4345)">
<path d="M57.6255 76.0316C69.2195 75.9012 80.4159 80.2259 88.8647 88.097C97.3137 95.9685 102.358 106.775 102.939 118.248L58.1567 120.451L13.3345 119.257C13.6401 107.774 18.424 96.8567 26.6821 88.7972C34.9403 80.7377 46.0312 76.1622 57.6255 76.0316ZM59.0562 14.8148C74.5987 14.815 87.1987 27.4148 87.1987 42.9574C87.1987 58.4999 74.5987 71.0998 59.0562 71.1C43.5135 71.1 30.9136 58.5 30.9136 42.9574C30.9136 27.4147 43.5135 14.8148 59.0562 14.8148Z" fill="#3C7A55"/>
</g>
</svg>
