<svg width="120" height="120" viewBox="0 0 120 120" fill="none" xmlns="http://www.w3.org/2000/svg">
<rect x="1" y="1" width="118" height="118" rx="11" fill="#0A100B" stroke="#152117" stroke-width="2"/>
<mask id="mask0_51_45" style="mask-type:alpha" maskUnits="userSpaceOnUse" x="20" y="20" width="80" height="80">
<rect x="20" y="20" width="80" height="80" fill="#D9D9D9"/>
</mask>
<g mask="url(#mask0_51_45)">
<path d="M55.3333 75.3333L78.8333 51.8333L74.1666 47.1667L55.3333 66L45.8333 56.5L41.1666 61.1667L55.3333 75.3333ZM60 93.3333C55.3888 93.3333 51.0555 92.4583 47 90.7083C42.9444 88.9583 39.4166 86.5833 36.4166 83.5833C33.4166 80.5833 31.0416 77.0556 29.2916 73C27.5416 68.9444 26.6666 64.6111 26.6666 60C26.6666 55.3889 27.5416 51.0556 29.2916 47C31.0416 42.9444 33.4166 39.4167 36.4166 36.4167C39.4166 33.4167 42.9444 31.0417 47 29.2917C51.0555 27.5417 55.3888 26.6667 60 26.6667C64.6111 26.6667 68.9444 27.5417 73 29.2917C77.0555 31.0417 80.5833 33.4167 83.5833 36.4167C86.5833 39.4167 88.9583 42.9444 90.7083 47C92.4583 51.0556 93.3333 55.3889 93.3333 60C93.3333 64.6111 92.4583 68.9444 90.7083 73C88.9583 77.0556 86.5833 80.5833 83.5833 83.5833C80.5833 86.5833 77.0555 88.9583 73 90.7083C68.9444 92.4583 64.6111 93.3333 60 93.3333ZM60 86.6667C67.4444 86.6667 73.75 84.0833 78.9166 78.9167C84.0833 73.75 86.6666 67.4444 86.6666 60C86.6666 52.5556 84.0833 46.25 78.9166 41.0833C73.75 35.9167 67.4444 33.3333 60 33.3333C52.5555 33.3333 46.25 35.9167 41.0833 41.0833C35.9166 46.25 33.3333 52.5556 33.3333 60C33.3333 67.4444 35.9166 73.75 41.0833 78.9167C46.25 84.0833 52.5555 86.6667 60 86.6667Z" fill="#BEF80D"/>
</g>
</svg>
