<svg width="120" height="120" viewBox="0 0 120 120" fill="none" xmlns="http://www.w3.org/2000/svg">
<rect x="1" y="1" width="118" height="118" rx="11" fill="#0A100B" stroke="#152117" stroke-width="2"/>
<mask id="mask0_7_473" style="mask-type:alpha" maskUnits="userSpaceOnUse" x="20" y="20" width="80" height="80">
<rect x="20" y="20" width="80" height="80" fill="#D9D9D9"/>
</mask>
<g mask="url(#mask0_7_473)">
<path d="M40 86.6667C36.3333 86.6667 33.1944 85.3611 30.5833 82.75C27.9722 80.1389 26.6667 77 26.6667 73.3333V46.6667C26.6667 43 27.9722 39.8611 30.5833 37.25C33.1944 34.6389 36.3333 33.3333 40 33.3333H80C83.6667 33.3333 86.8056 34.6389 89.4167 37.25C92.0278 39.8611 93.3333 43 93.3333 46.6667V73.3333C93.3333 77 92.0278 80.1389 89.4167 82.75C86.8056 85.3611 83.6667 86.6667 80 86.6667H40ZM40 46.6667H80C81.2222 46.6667 82.3889 46.8056 83.5 47.0833C84.6111 47.3611 85.6667 47.8056 86.6667 48.4167V46.6667C86.6667 44.8333 86.0139 43.2639 84.7083 41.9583C83.4028 40.6528 81.8333 40 80 40H40C38.1667 40 36.5972 40.6528 35.2917 41.9583C33.9861 43.2639 33.3333 44.8333 33.3333 46.6667V48.4167C34.3333 47.8056 35.3889 47.3611 36.5 47.0833C37.6111 46.8056 38.7778 46.6667 40 46.6667ZM33.8333 57.5L70.9167 66.5C71.4167 66.6111 71.9167 66.6111 72.4167 66.5C72.9167 66.3889 73.3889 66.1667 73.8333 65.8333L85.4167 56.1667C84.8056 55.3333 84.0278 54.6528 83.0833 54.125C82.1389 53.5972 81.1111 53.3333 80 53.3333H40C38.5556 53.3333 37.2917 53.7083 36.2083 54.4583C35.125 55.2083 34.3333 56.2222 33.8333 57.5Z" fill="#BEF80D"/>
</g>
</svg>
