<svg width="120" height="120" viewBox="0 0 120 120" fill="none" xmlns="http://www.w3.org/2000/svg">
<rect x="1" y="1" width="118" height="118" rx="11" fill="#0A100B" stroke="#152117" stroke-width="2"/>
<mask id="mask0_51_25" style="mask-type:alpha" maskUnits="userSpaceOnUse" x="20" y="20" width="80" height="80">
<rect x="20" y="20" width="80" height="80" fill="#D9D9D9"/>
</mask>
<g mask="url(#mask0_51_25)">
<path d="M57 83.3333H62.8333V79.1667C65.6111 78.6667 68 77.5833 70 75.9167C72 74.25 73 71.7778 73 68.5C73 66.1667 72.3333 64.0278 71 62.0833C69.6667 60.1389 67 58.4444 63 57C59.6667 55.8889 57.3611 54.9167 56.0833 54.0833C54.8055 53.25 54.1667 52.1111 54.1667 50.6667C54.1667 49.2222 54.6805 48.0833 55.7083 47.25C56.7361 46.4167 58.2222 46 60.1667 46C61.9444 46 63.3333 46.4306 64.3333 47.2917C65.3333 48.1528 66.0555 49.2222 66.5 50.5L71.8333 48.3333C71.2222 46.3889 70.0972 44.6944 68.4583 43.25C66.8194 41.8056 65 41 63 40.8333V36.6667H57.1667V40.8333C54.3889 41.4444 52.2222 42.6667 50.6667 44.5C49.1111 46.3333 48.3333 48.3889 48.3333 50.6667C48.3333 53.2778 49.0972 55.3889 50.625 57C52.1528 58.6111 54.5555 60 57.8333 61.1667C61.3333 62.4444 63.7639 63.5833 65.125 64.5833C66.4861 65.5833 67.1667 66.8889 67.1667 68.5C67.1667 70.3333 66.5139 71.6805 65.2083 72.5417C63.9028 73.4028 62.3333 73.8333 60.5 73.8333C58.6667 73.8333 57.0417 73.2639 55.625 72.125C54.2083 70.9861 53.1667 69.2778 52.5 67L47 69.1667C47.7778 71.8333 48.9861 73.9861 50.625 75.625C52.2639 77.2639 54.3889 78.3889 57 79V83.3333ZM60 93.3333C55.3889 93.3333 51.0555 92.4583 47 90.7083C42.9444 88.9583 39.4167 86.5833 36.4167 83.5833C33.4167 80.5833 31.0417 77.0556 29.2917 73C27.5417 68.9444 26.6667 64.6111 26.6667 60C26.6667 55.3889 27.5417 51.0556 29.2917 47C31.0417 42.9444 33.4167 39.4167 36.4167 36.4167C39.4167 33.4167 42.9444 31.0417 47 29.2917C51.0555 27.5417 55.3889 26.6667 60 26.6667C64.6111 26.6667 68.9444 27.5417 73 29.2917C77.0555 31.0417 80.5833 33.4167 83.5833 36.4167C86.5833 39.4167 88.9583 42.9444 90.7083 47C92.4583 51.0556 93.3333 55.3889 93.3333 60C93.3333 64.6111 92.4583 68.9444 90.7083 73C88.9583 77.0556 86.5833 80.5833 83.5833 83.5833C80.5833 86.5833 77.0555 88.9583 73 90.7083C68.9444 92.4583 64.6111 93.3333 60 93.3333ZM60 86.6667C67.4444 86.6667 73.75 84.0833 78.9167 78.9167C84.0833 73.75 86.6667 67.4444 86.6667 60C86.6667 52.5556 84.0833 46.25 78.9167 41.0833C73.75 35.9167 67.4444 33.3333 60 33.3333C52.5555 33.3333 46.25 35.9167 41.0833 41.0833C35.9167 46.25 33.3333 52.5556 33.3333 60C33.3333 67.4444 35.9167 73.75 41.0833 78.9167C46.25 84.0833 52.5555 86.6667 60 86.6667Z" fill="#BEF80D"/>
</g>
</svg>
