<svg width="120" height="120" viewBox="0 0 120 120" fill="none" xmlns="http://www.w3.org/2000/svg">
<rect x="1" y="1" width="118" height="118" rx="11" fill="#0A100B" stroke="#152117" stroke-width="2"/>
<mask id="mask0_51_35" style="mask-type:alpha" maskUnits="userSpaceOnUse" x="20" y="20" width="80" height="80">
<rect x="20" y="20" width="80" height="80" fill="#D9D9D9"/>
</mask>
<g mask="url(#mask0_51_35)">
<path d="M66.6666 63.3333C63.8889 63.3333 61.5278 62.3611 59.5833 60.4167C57.6389 58.4722 56.6666 56.1111 56.6666 53.3333C56.6666 50.5556 57.6389 48.1944 59.5833 46.25C61.5278 44.3056 63.8889 43.3333 66.6666 43.3333C69.4444 43.3333 71.8055 44.3056 73.75 46.25C75.6944 48.1944 76.6666 50.5556 76.6666 53.3333C76.6666 56.1111 75.6944 58.4722 73.75 60.4167C71.8055 62.3611 69.4444 63.3333 66.6666 63.3333ZM43.3333 73.3333C41.5 73.3333 39.9305 72.6806 38.625 71.375C37.3194 70.0694 36.6666 68.5 36.6666 66.6667V40C36.6666 38.1667 37.3194 36.5972 38.625 35.2917C39.9305 33.9861 41.5 33.3333 43.3333 33.3333H90C91.8333 33.3333 93.4028 33.9861 94.7083 35.2917C96.0139 36.5972 96.6666 38.1667 96.6666 40V66.6667C96.6666 68.5 96.0139 70.0694 94.7083 71.375C93.4028 72.6806 91.8333 73.3333 90 73.3333H43.3333ZM50 66.6667H83.3333C83.3333 64.8333 83.9861 63.2639 85.2916 61.9583C86.5972 60.6528 88.1666 60 90 60V46.6667C88.1666 46.6667 86.5972 46.0139 85.2916 44.7083C83.9861 43.4028 83.3333 41.8333 83.3333 40H50C50 41.8333 49.3472 43.4028 48.0416 44.7083C46.7361 46.0139 45.1666 46.6667 43.3333 46.6667V60C45.1666 60 46.7361 60.6528 48.0416 61.9583C49.3472 63.2639 50 64.8333 50 66.6667ZM86.6666 86.6667H30C28.1666 86.6667 26.5972 86.0139 25.2916 84.7083C23.9861 83.4028 23.3333 81.8333 23.3333 80V43.3333H30V80H86.6666V86.6667Z" fill="#BEF80D"/>
</g>
</svg>
