<svg width="27" height="26" viewBox="0 0 27 26" fill="none" xmlns="http://www.w3.org/2000/svg">
<path d="M8.36395 1C8.36395 0.447715 7.91624 2.41411e-08 7.36395 0C6.81167 -2.41411e-08 6.36395 0.447715 6.36395 1L7.36395 1L8.36395 1ZM6.65684 25.7071C7.04737 26.0976 7.68053 26.0976 8.07106 25.7071L14.435 19.3431C14.8255 18.9526 14.8255 18.3195 14.435 17.9289C14.0445 17.5384 13.4113 17.5384 13.0208 17.9289L7.36395 23.5858L1.7071 17.9289C1.31657 17.5384 0.683408 17.5384 0.292884 17.9289C-0.0976403 18.3195 -0.0976403 18.9526 0.292884 19.3431L6.65684 25.7071ZM7.36395 1L6.36395 1L6.36395 25L7.36395 25L8.36395 25L8.36395 1L7.36395 1Z" fill="#0A100B"/>
<path d="M20.364 25C20.364 25.5523 19.9162 26 19.364 26C18.8117 26 18.364 25.5523 18.364 25L19.364 25L20.364 25ZM18.6568 0.292892C19.0474 -0.0976314 19.6805 -0.0976315 20.0711 0.292892L26.435 6.65685C26.8255 7.04738 26.8255 7.68054 26.435 8.07107C26.0445 8.46159 25.4113 8.46159 25.0208 8.07107L19.364 2.41421L13.7071 8.07107C13.3166 8.46159 12.6834 8.46159 12.2929 8.07107C11.9024 7.68054 11.9024 7.04738 12.2929 6.65685L18.6568 0.292892ZM19.364 25L18.364 25L18.364 1L19.364 1L20.364 1L20.364 25L19.364 25Z" fill="#0A100B"/>
</svg>
