<svg width="105" height="24" viewBox="0 0 105 24" fill="none" xmlns="http://www.w3.org/2000/svg">
<path d="M38.9828 1.41438C37.532 0.709212 35.5921 0.356628 33.1632 0.356628C30.768 0.356628 28.839 0.709212 27.3881 1.41438C25.935 2.11881 24.8067 3.35291 24.2351 4.86321C23.5867 6.45997 23.2625 8.56872 23.2625 11.1895C23.2625 13.8102 23.5867 15.9338 24.2351 17.5603C24.8057 19.0712 25.9342 20.3057 27.3881 21.0091C28.839 21.7143 30.768 22.0669 33.1632 22.0669C35.5583 22.0669 37.532 21.7143 38.9828 21.0091C40.4349 20.3094 41.5583 19.0727 42.1156 17.5603C42.7532 15.9689 43.0706 13.8453 43.0679 11.1895C43.0652 8.5336 42.7478 6.42485 42.1156 4.86321C41.5571 3.35141 40.4342 2.11511 38.9828 1.41438ZM38.2858 15.7609C38.1663 16.2448 37.949 16.699 37.6472 17.0956C37.3454 17.4922 36.9655 17.8228 36.531 18.0669C35.4765 18.5504 34.322 18.7754 33.1632 18.7234C32.0133 18.778 30.8674 18.5527 29.8238 18.0669C29.3923 17.8211 29.0155 17.4898 28.7165 17.0933C28.4176 16.6968 28.2027 16.2434 28.0852 15.7609C27.7007 14.2688 27.5301 12.7296 27.5786 11.1895C27.5267 9.65772 27.6945 8.12645 28.0771 6.64235C28.2002 6.1622 28.4172 5.71121 28.7157 5.31542C29.0141 4.91962 29.3879 4.58687 29.8157 4.33637C30.8546 3.83473 32.0028 3.60201 33.1551 3.65956C34.3163 3.60461 35.473 3.83709 36.5229 4.33637C36.9543 4.58435 37.3318 4.9161 37.6332 5.31211C37.9345 5.70813 38.1537 6.16041 38.2777 6.64235C38.6649 8.12569 38.8356 9.65726 38.7843 11.1895C38.8374 12.7293 38.6695 14.2687 38.2858 15.7609Z" fill="#424242"/>
<path d="M79.6231 11.4367C80.4526 10.4208 80.8578 8.98208 80.8389 7.12055C80.8389 4.89157 80.1257 3.20565 78.6991 2.06279C77.2726 0.919938 74.9666 0.348511 71.7812 0.348511C69.5252 0.348511 67.6772 0.679479 66.2371 1.34142C64.7984 2.00606 64.0446 3.12865 63.3678 4.7092C62.691 6.28974 62.3506 8.43361 62.3506 11.1408C62.3506 13.7372 62.6897 15.8325 63.3678 17.4265C64.0446 19.0192 64.8106 20.1824 66.2776 20.9159C67.7447 21.6494 69.6941 22.0182 72.1176 22.0182C72.9646 22.0182 73.8967 21.9736 74.9139 21.8926C75.908 21.8109 76.8969 21.6756 77.8764 21.4873C78.7155 21.3397 79.5371 21.1061 80.3283 20.7902L79.923 18.1236C78.8207 18.2654 77.6008 18.383 76.2756 18.4843C74.9504 18.5856 73.7265 18.6302 72.6566 18.6302C71.4099 18.6769 70.1673 18.4615 69.0091 17.998C68.5383 17.7687 68.1191 17.4461 67.777 17.0496C67.4349 16.6532 67.1771 16.1913 67.0193 15.692C66.7263 14.8079 66.5478 13.8899 66.4884 12.9605H75.6353C77.4617 12.9659 78.791 12.4579 79.6231 11.4367ZM66.3992 9.309C66.4336 8.33989 66.5818 7.37819 66.841 6.44375C66.96 5.97876 67.1737 5.54334 67.4686 5.16469C67.7636 4.78604 68.1335 4.47232 68.5552 4.24314C69.6191 3.76832 70.7797 3.55036 71.9433 3.60687C73.69 3.60687 74.9261 3.87434 75.6434 4.4174C76.3607 4.96046 76.7457 5.71426 76.7619 6.9868C76.7619 7.74871 76.231 9.36574 74.1034 9.28468L66.3992 9.309Z" fill="#424242"/>
<path d="M97.4792 11.1327L103.964 0.86322H100.673C100.315 0.863453 99.9627 0.955617 99.6505 1.13089C99.3382 1.30616 99.0762 1.55868 98.8896 1.86423L94.2249 9.48733H93.3252L88.6606 1.86423C88.4746 1.559 88.2133 1.30664 87.9018 1.13137C87.5902 0.956089 87.2389 0.863758 86.8815 0.86322H83.5866L90.0709 11.1327L83.0963 22.0101H86.3951C86.7508 22.0102 87.1005 21.9194 87.4111 21.7463C87.7218 21.5732 87.9831 21.3237 88.1702 21.0213L93.4387 12.5633H94.1358L99.4326 21.0294C99.6207 21.3294 99.8818 21.5768 100.192 21.7483C100.501 21.9199 100.85 22.01 101.204 22.0101H104.507L97.4792 11.1327Z" fill="#424242"/>
<path d="M50.2208 3.93109L49.8602 1.11852H46.6869V21.7872H50.7396V6.83686C52.0181 6.17032 53.3395 5.58951 54.695 5.09826C55.8384 4.71886 57.0264 4.48999 58.2289 4.41741H59.542L59.9473 0.611938H59.0192C57.6373 0.611938 53.1712 1.30495 50.2208 3.93109Z" fill="#424242"/>
<mask id="mask0_86_4349" style="mask-type:luminance" maskUnits="userSpaceOnUse" x="0" y="0" width="20" height="24">
<path d="M15.9635 1.40623C14.5207 0.709165 12.5944 0.359285 10.1844 0.356583C7.77438 0.353881 5.86421 0.703761 4.45388 1.40623C3.01357 2.10727 1.89573 3.3324 1.32926 4.83075C0.68353 6.4113 0.362015 8.50383 0.364717 11.1084C0.367419 13.7129 0.688934 15.8203 1.32926 17.4305C1.89768 18.9303 3.01861 20.1557 4.46198 20.8551C5.89933 21.5575 7.8095 21.9074 10.1925 21.9047C11.0966 21.9093 11.9999 21.8497 12.8956 21.7264L12.9483 21.8682C13.1587 22.3873 13.5181 22.8325 13.9811 23.1477C14.4441 23.4628 14.9901 23.6339 15.5501 23.6392H17.2847C17.2847 23.6392 16.9199 22.7355 16.4741 21.6129C15.9757 20.3971 15.3596 18.9017 14.9665 18.0222L14.2978 16.5227C14.0461 15.9943 13.6499 15.5479 13.155 15.2352C12.6602 14.9225 12.0869 14.7563 11.5015 14.7558H10.0952L11.5826 18.4883C11.1139 18.5536 10.6413 18.5861 10.1682 18.5856C9.02701 18.6399 7.88965 18.4174 6.85307 17.9371C6.42627 17.6915 6.05363 17.362 5.75762 16.9685C5.4616 16.5749 5.24834 16.1255 5.13068 15.6474C4.74662 14.1662 4.57604 12.6378 4.62409 11.1084C4.57501 9.58693 4.74563 8.06637 5.13068 6.59366C5.2528 6.11735 5.46783 5.66988 5.76341 5.27693C6.05899 4.88398 6.4293 4.5533 6.85307 4.30389C7.88535 3.80861 9.02447 3.57744 10.1682 3.63115C11.3208 3.57928 12.4687 3.81025 13.5116 4.30389C13.9392 4.55127 14.3133 4.88104 14.6125 5.2741C14.9116 5.66715 15.1298 6.11567 15.2543 6.59366C15.6377 8.06662 15.8069 9.58714 15.7568 11.1084V12.9888L16.0446 13.6697C16.4498 14.5531 17.0496 16.0364 17.5522 17.2603L18.2249 18.9138C18.565 18.4561 18.8443 17.9561 19.0557 17.4265C19.6852 15.8459 20 13.7385 20 11.1043C20 8.47005 19.6852 6.37752 19.0557 4.82669C18.5023 3.33188 17.3951 2.10718 15.9635 1.40623Z" fill="white"/>
</mask>
<g mask="url(#mask0_86_4349)">
<path d="M20.0162 0.356567H0.356621V2.05464H20.0162V0.356567Z" fill="#B8FFCE"/>
<path d="M20.0162 2.05469H0.356621V2.20058H20.0162V2.05469Z" fill="#B8FFCE"/>
<path d="M20.0162 2.20056H0.356621V2.34646H20.0162V2.20056Z" fill="#B8FFCE"/>
<path d="M20.0162 2.34241H0.356621V2.48831H20.0162V2.34241Z" fill="#B8FFCD"/>
<path d="M20.0162 2.48828H0.356621V2.63417H20.0162V2.48828Z" fill="#B8FFCD"/>
<path d="M20.0162 2.63422H0.356621V2.78012H20.0162V2.63422Z" fill="#B8FECD"/>
<path d="M20.0162 2.78015H0.356621V2.92604H20.0162V2.78015Z" fill="#B8FECC"/>
<path d="M20.0162 2.92603H0.356621V3.07192H20.0162V2.92603Z" fill="#B8FECC"/>
<path d="M20.0162 3.06781H0.356621V3.2137H20.0162V3.06781Z" fill="#B8FECB"/>
<path d="M20.0162 3.21375H0.356621V3.35965H20.0162V3.21375Z" fill="#B8FECA"/>
<path d="M20.0162 3.35962H0.356621V3.50551H20.0162V3.35962Z" fill="#B8FDCA"/>
<path d="M20.0162 3.50555H0.356621V3.65146H20.0162V3.50555Z" fill="#B8FDC9"/>
<path d="M20.0162 3.65143H0.356621V3.79732H20.0162V3.65143Z" fill="#B8FDC8"/>
<path d="M20.0162 3.79327H0.356621V3.93916H20.0162V3.79327Z" fill="#B8FDC8"/>
<path d="M20.0162 3.93921H0.356621V4.0851H20.0162V3.93921Z" fill="#B9FCC7"/>
<path d="M20.0162 4.08508H0.356621V4.23099H20.0162V4.08508Z" fill="#B9FCC6"/>
<path d="M20.0162 4.23096H0.356621V4.37685H20.0162V4.23096Z" fill="#B9FCC6"/>
<path d="M20.0162 4.37683H0.356621V4.52273H20.0162V4.37683Z" fill="#B9FCC5"/>
<path d="M20.0162 4.51874H0.356621V4.66464H20.0162V4.51874Z" fill="#B9FBC4"/>
<path d="M20.0162 4.66461H0.356621V4.8105H20.0162V4.66461Z" fill="#B9FBC3"/>
<path d="M20.0162 4.81049H0.356621V4.95639H20.0162V4.81049Z" fill="#B9FBC2"/>
<path d="M20.0162 4.95642H0.356621V5.10231H20.0162V4.95642Z" fill="#B9FAC1"/>
<path d="M20.0162 5.10229H0.356621V5.2482H20.0162V5.10229Z" fill="#B9FAC1"/>
<path d="M20.0162 5.24414H0.356621V5.39003H20.0162V5.24414Z" fill="#B9FAC0"/>
<path d="M20.0162 5.39001H0.356621V5.53592H20.0162V5.39001Z" fill="#B9F9BF"/>
<path d="M20.0162 5.53589H0.356621V5.68178H20.0162V5.53589Z" fill="#B9F9BE"/>
<path d="M20.0162 5.68182H0.356621V5.82773H20.0162V5.68182Z" fill="#B9F9BD"/>
<path d="M20.0162 5.82776H0.356621V5.97365H20.0162V5.82776Z" fill="#B9F8BC"/>
<path d="M20.0162 5.9696H0.356621V6.1155H20.0162V5.9696Z" fill="#B9F8BB"/>
<path d="M20.0162 6.11548H0.356621V6.26138H20.0162V6.11548Z" fill="#B9F8BA"/>
<path d="M20.0162 6.26135H0.356621V6.40724H20.0162V6.26135Z" fill="#BAF7B9"/>
<path d="M20.0162 6.40729H0.356621V6.55319H20.0162V6.40729Z" fill="#BAF7B8"/>
<path d="M20.0162 6.55316H0.356621V6.69905H20.0162V6.55316Z" fill="#BAF7B7"/>
<path d="M20.0162 6.69495H0.356621V6.84085H20.0162V6.69495Z" fill="#BAF6B6"/>
<path d="M20.0162 6.84088H0.356621V6.98677H20.0162V6.84088Z" fill="#BAF6B5"/>
<path d="M20.0162 6.98682H0.356621V7.13272H20.0162V6.98682Z" fill="#BAF6B4"/>
<path d="M20.0162 7.13275H0.356621V7.27864H20.0162V7.13275Z" fill="#BAF5B3"/>
<path d="M20.0162 7.27863H0.356621V7.42453H20.0162V7.27863Z" fill="#BAF5B2"/>
<path d="M20.0162 7.42041H0.356621V7.56631H20.0162V7.42041Z" fill="#BAF4B1"/>
<path d="M20.0162 7.56635H0.356621V7.71224H20.0162V7.56635Z" fill="#BAF4B0"/>
<path d="M20.0162 7.71222H0.356621V7.85812H20.0162V7.71222Z" fill="#BAF4AF"/>
<path d="M20.0162 7.85815H0.356621V8.00404H20.0162V7.85815Z" fill="#BAF3AE"/>
<path d="M20.0162 8.00403H0.356621V8.14993H20.0162V8.00403Z" fill="#BBF3AD"/>
<path d="M20.0162 8.14587H0.356621V8.29176H20.0162V8.14587Z" fill="#BBF2AC"/>
<path d="M20.0162 8.29181H0.356621V8.43771H20.0162V8.29181Z" fill="#BBF2AB"/>
<path d="M20.0162 8.43768H0.356621V8.58357H20.0162V8.43768Z" fill="#BBF2AA"/>
<path d="M20.0162 8.58356H0.356621V8.72946H20.0162V8.58356Z" fill="#BBF1A8"/>
<path d="M20.0162 8.7254H0.356621V8.87131H20.0162V8.7254Z" fill="#BBF1A7"/>
<path d="M20.0162 8.87134H0.356621V9.01723H20.0162V8.87134Z" fill="#BBF0A6"/>
<path d="M20.0162 9.01721H0.356621V9.16311H20.0162V9.01721Z" fill="#BBF0A5"/>
<path d="M20.0162 9.16309H0.356621V9.30898H20.0162V9.16309Z" fill="#BBF0A4"/>
<path d="M20.0162 9.30896H0.356621V9.45485H20.0162V9.30896Z" fill="#BBEFA3"/>
<path d="M20.0162 9.45087H0.356621V9.59676H20.0162V9.45087Z" fill="#BBEFA2"/>
<path d="M20.0162 9.59674H0.356621V9.74264H20.0162V9.59674Z" fill="#BBEEA0"/>
<path d="M20.0162 9.74261H0.356621V9.88851H20.0162V9.74261Z" fill="#BCEE9F"/>
<path d="M20.0162 9.88849H0.356621V10.0344H20.0162V9.88849Z" fill="#BCED9E"/>
<path d="M20.0162 10.0344H0.356621V10.1803H20.0162V10.0344Z" fill="#BCED9D"/>
<path d="M20.0162 10.1763H0.356621V10.3222H20.0162V10.1763Z" fill="#BCEC9C"/>
<path d="M20.0162 10.3221H0.356621V10.468H20.0162V10.3221Z" fill="#BCEC9A"/>
<path d="M20.0162 10.468H0.356621V10.6139H20.0162V10.468Z" fill="#BCEC99"/>
<path d="M20.0162 10.614H0.356621V10.7598H20.0162V10.614Z" fill="#BCEB98"/>
<path d="M20.0162 10.7598H0.356621V10.9057H20.0162V10.7598Z" fill="#BCEB97"/>
<path d="M20.0162 10.9017H0.356621V11.0476H20.0162V10.9017Z" fill="#BCEA95"/>
<path d="M20.0162 11.0475H0.356621V11.1934H20.0162V11.0475Z" fill="#BCEA94"/>
<path d="M20.0162 11.1935H0.356621V11.3394H20.0162V11.1935Z" fill="#BCE993"/>
<path d="M20.0162 11.3394H0.356621V11.4853H20.0162V11.3394Z" fill="#BDE992"/>
<path d="M20.0162 11.4853H0.356621V11.6312H20.0162V11.4853Z" fill="#BDE890"/>
<path d="M20.0162 11.6271H0.356621V11.773H20.0162V11.6271Z" fill="#BDE88F"/>
<path d="M20.0162 11.773H0.356621V11.9189H20.0162V11.773Z" fill="#BDE78E"/>
<path d="M20.0162 11.9189H0.356621V12.0648H20.0162V11.9189Z" fill="#BDE78C"/>
<path d="M20.0162 12.0648H0.356621V12.2107H20.0162V12.0648Z" fill="#BDE68B"/>
<path d="M20.0162 12.2107H0.356621V12.3566H20.0162V12.2107Z" fill="#BDE68A"/>
<path d="M20.0162 12.3525H0.356621V12.4984H20.0162V12.3525Z" fill="#BDE588"/>
<path d="M20.0162 12.4985H0.356621V12.6444H20.0162V12.4985Z" fill="#BDE587"/>
<path d="M20.0162 12.6443H0.356621V12.7902H20.0162V12.6443Z" fill="#BDE486"/>
<path d="M20.0162 12.7902H0.356621V12.9361H20.0162V12.7902Z" fill="#BEE484"/>
<path d="M20.0162 12.9361H0.356621V13.082H20.0162V12.9361Z" fill="#BEE383"/>
<path d="M20.0162 13.078H0.356621V13.2239H20.0162V13.078Z" fill="#BEE382"/>
<path d="M20.0162 13.2239H0.356621V13.3698H20.0162V13.2239Z" fill="#BEE380"/>
<path d="M20.0162 13.3698H0.356621V13.5157H20.0162V13.3698Z" fill="#BEE27F"/>
<path d="M20.0162 13.5157H0.356621V13.5967H20.0162V13.5157Z" fill="#BEE27F"/>
<path d="M20.0162 13.5927H0.356621V13.6737H20.0162V13.5927Z" fill="#BEE27F"/>
<path d="M20.0162 13.6737H0.356621V13.7548H20.0162V13.6737Z" fill="#BEE27F"/>
<path d="M20.0162 13.7548H0.356621V13.8358H20.0162V13.7548Z" fill="#BEE27F"/>
<path d="M20.0162 13.8318H0.356621V13.9128H20.0162V13.8318Z" fill="#BEE27F"/>
<path d="M20.0162 13.9128H0.356621V13.9939H20.0162V13.9128Z" fill="#BEE27E"/>
<path d="M20.0162 13.9939H0.356621V14.075H20.0162V13.9939Z" fill="#BEE27E"/>
<path d="M20.0162 14.0709H0.356621V14.152H20.0162V14.0709Z" fill="#BEE27E"/>
<path d="M20.0162 14.1519H0.356621V14.233H20.0162V14.1519Z" fill="#BEE27E"/>
<path d="M20.0162 14.233H0.356621V14.3141H20.0162V14.233Z" fill="#BEE27E"/>
<path d="M20.0162 14.31H0.356621V14.3911H20.0162V14.31Z" fill="#BEE27D"/>
<path d="M20.0162 14.3911H0.356621V14.4721H20.0162V14.3911Z" fill="#BFE27D"/>
<path d="M20.0162 14.4721H0.356621V14.5532H20.0162V14.4721Z" fill="#BFE27D"/>
<path d="M20.0162 14.5532H0.356621V14.6342H20.0162V14.5532Z" fill="#BFE27C"/>
<path d="M20.0162 14.6302H0.356621V14.7112H20.0162V14.6302Z" fill="#BFE27C"/>
<path d="M20.0162 14.7112H0.356621V14.7922H20.0162V14.7112Z" fill="#BFE27C"/>
<path d="M20.0162 14.7922H0.356621V14.8733H20.0162V14.7922Z" fill="#BFE27B"/>
<path d="M20.0162 14.8693H0.356621V14.9503H20.0162V14.8693Z" fill="#BFE27B"/>
<path d="M20.0162 14.9503H0.356621V15.0314H20.0162V14.9503Z" fill="#BFE27A"/>
<path d="M20.0162 15.0314H0.356621V15.1124H20.0162V15.0314Z" fill="#BFE27A"/>
<path d="M20.0162 15.1083H0.356621V15.1894H20.0162V15.1083Z" fill="#C0E279"/>
<path d="M20.0162 15.1895H0.356621V15.2705H20.0162V15.1895Z" fill="#C0E279"/>
<path d="M20.0162 15.2705H0.356621V15.3516H20.0162V15.2705Z" fill="#C0E278"/>
<path d="M20.0162 15.3475H0.356621V15.4285H20.0162V15.3475Z" fill="#C0E278"/>
<path d="M20.0162 15.4285H0.356621V15.5096H20.0162V15.4285Z" fill="#C0E277"/>
<path d="M20.0162 15.5096H0.356621V15.5906H20.0162V15.5096Z" fill="#C0E277"/>
<path d="M20.0162 15.5866H0.356621V15.6677H20.0162V15.5866Z" fill="#C0E276"/>
<path d="M20.0162 15.6677H0.356621V15.7487H20.0162V15.6677Z" fill="#C1E376"/>
<path d="M20.0162 15.7487H0.356621V15.8298H20.0162V15.7487Z" fill="#C1E375"/>
<path d="M20.0162 15.8257H0.356621V15.9067H20.0162V15.8257Z" fill="#C1E375"/>
<path d="M20.0162 15.9068H0.356621V15.9879H20.0162V15.9068Z" fill="#C1E374"/>
<path d="M20.0162 15.9878H0.356621V16.0688H20.0162V15.9878Z" fill="#C1E373"/>
<path d="M20.0162 16.0648H0.356621V16.1459H20.0162V16.0648Z" fill="#C1E373"/>
<path d="M20.0162 16.1459H0.356621V16.2269H20.0162V16.1459Z" fill="#C2E372"/>
<path d="M20.0162 16.2269H0.356621V16.3079H20.0162V16.2269Z" fill="#C2E371"/>
<path d="M20.0162 16.304H0.356621V16.385H20.0162V16.304Z" fill="#C2E371"/>
<path d="M20.0162 16.3849H0.356621V16.466H20.0162V16.3849Z" fill="#C2E370"/>
<path d="M20.0162 16.466H0.356621V16.547H20.0162V16.466Z" fill="#C2E36F"/>
<path d="M20.0162 16.543H0.356621V16.6241H20.0162V16.543Z" fill="#C3E36E"/>
<path d="M20.0162 16.624H0.356621V16.7051H20.0162V16.624Z" fill="#C3E36E"/>
<path d="M20.0162 16.7051H0.356621V16.7862H20.0162V16.7051Z" fill="#C3E36D"/>
<path d="M20.0162 16.7821H0.356621V16.8632H20.0162V16.7821Z" fill="#C3E36C"/>
<path d="M20.0162 16.8632H0.356621V16.9443H20.0162V16.8632Z" fill="#C4E36B"/>
<path d="M20.0162 16.9443H0.356621V17.0253H20.0162V16.9443Z" fill="#C4E36B"/>
<path d="M20.0162 17.0212H0.356621V17.1023H20.0162V17.0212Z" fill="#C4E36A"/>
<path d="M20.0162 17.1023H0.356621V17.1833H20.0162V17.1023Z" fill="#C4E369"/>
<path d="M20.0162 17.1833H0.356621V17.2644H20.0162V17.1833Z" fill="#C4E368"/>
<path d="M20.0162 17.2604H0.356621V17.3414H20.0162V17.2604Z" fill="#C5E367"/>
<path d="M20.0162 17.3414H0.356621V17.4225H20.0162V17.3414Z" fill="#C5E366"/>
<path d="M20.0162 17.4225H0.356621V17.5035H20.0162V17.4225Z" fill="#C5E366"/>
<path d="M20.0162 17.4995H0.356621V17.5805H20.0162V17.4995Z" fill="#C5E365"/>
<path d="M20.0162 17.5805H0.356621V17.6616H20.0162V17.5805Z" fill="#C6E464"/>
<path d="M20.0162 17.6616H0.356621V17.7426H20.0162V17.6616Z" fill="#C6E463"/>
<path d="M20.0162 17.7386H0.356621V17.8196H20.0162V17.7386Z" fill="#C6E462"/>
<path d="M20.0162 17.8196H0.356621V17.9007H20.0162V17.8196Z" fill="#C7E461"/>
<path d="M20.0162 17.9006H0.356621V17.9817H20.0162V17.9006Z" fill="#C7E460"/>
<path d="M20.0162 17.9818H0.356621V18.0628H20.0162V17.9818Z" fill="#C7E45F"/>
<path d="M20.0162 18.0587H0.356621V18.1398H20.0162V18.0587Z" fill="#C7E45E"/>
<path d="M20.0162 18.1398H0.356621V18.2208H20.0162V18.1398Z" fill="#C8E45D"/>
<path d="M20.0162 18.2209H0.356621V18.3019H20.0162V18.2209Z" fill="#C8E45C"/>
<path d="M20.0162 18.2978H0.356621V18.3788H20.0162V18.2978Z" fill="#C8E45B"/>
<path d="M20.0162 18.3789H0.356621V18.46H20.0162V18.3789Z" fill="#C8E45A"/>
<path d="M20.0162 18.46H0.356621V18.541H20.0162V18.46Z" fill="#C9E459"/>
<path d="M20.0162 18.5369H0.356621V18.618H20.0162V18.5369Z" fill="#C9E458"/>
<path d="M20.0162 18.618H0.356621V18.6991H20.0162V18.618Z" fill="#C9E457"/>
<path d="M20.0162 18.699H0.356621V18.7801H20.0162V18.699Z" fill="#CAE456"/>
<path d="M20.0162 18.7761H0.356621V18.8571H20.0162V18.7761Z" fill="#CAE455"/>
<path d="M20.0162 18.8571H0.356621V18.9382H20.0162V18.8571Z" fill="#CAE454"/>
<path d="M20.0162 18.9382H0.356621V19.0192H20.0162V18.9382Z" fill="#CBE453"/>
<path d="M20.0162 19.0152H0.356621V19.0962H20.0162V19.0152Z" fill="#CBE551"/>
<path d="M20.0162 19.0962H0.356621V19.1773H20.0162V19.0962Z" fill="#CBE550"/>
<path d="M20.0162 19.1772H0.356621V19.2583H20.0162V19.1772Z" fill="#CCE54F"/>
<path d="M20.0162 19.2543H0.356621V19.3353H20.0162V19.2543Z" fill="#CCE54E"/>
<path d="M20.0162 19.3353H0.356621V19.4164H20.0162V19.3353Z" fill="#CCE54D"/>
<path d="M20.0162 19.4164H0.356621V19.4974H20.0162V19.4164Z" fill="#CDE54C"/>
<path d="M20.0162 19.4934H0.356621V19.5745H20.0162V19.4934Z" fill="#CDE54A"/>
<path d="M20.0162 19.5744H0.356621V19.6555H20.0162V19.5744Z" fill="#CDE549"/>
<path d="M20.0162 19.6555H0.356621V19.7366H20.0162V19.6555Z" fill="#CEE548"/>
<path d="M20.0162 19.7325H0.356621V19.8135H20.0162V19.7325Z" fill="#CEE547"/>
<path d="M20.0162 19.8135H0.356621V19.8946H20.0162V19.8135Z" fill="#CEE546"/>
<path d="M20.0162 19.8947H0.356621V19.9757H20.0162V19.8947Z" fill="#CFE544"/>
<path d="M20.0162 19.9716H0.356621V20.0526H20.0162V19.9716Z" fill="#CFE543"/>
<path d="M20.0162 20.0527H0.356621V20.1337H20.0162V20.0527Z" fill="#CFE542"/>
<path d="M20.0162 20.1337H0.356621V20.2148H20.0162V20.1337Z" fill="#D0E541"/>
<path d="M20.0162 20.2107H0.356621V20.2918H20.0162V20.2107Z" fill="#D0E63F"/>
<path d="M20.0162 20.2917H0.356621V20.3728H20.0162V20.2917Z" fill="#D0E63E"/>
<path d="M20.0162 20.3728H0.356621V20.4539H20.0162V20.3728Z" fill="#D1E63D"/>
<path d="M20.0162 20.4498H0.356621V20.5309H20.0162V20.4498Z" fill="#D1E63B"/>
<path d="M20.0162 20.5309H0.356621V20.6119H20.0162V20.5309Z" fill="#D2E63A"/>
<path d="M20.0162 20.6119H0.356621V20.693H20.0162V20.6119Z" fill="#D2E639"/>
<path d="M20.0162 20.6889H0.356621V20.77H20.0162V20.6889Z" fill="#D2E637"/>
<path d="M20.0162 20.77H0.356621V20.851H20.0162V20.77Z" fill="#D3E636"/>
<path d="M20.0162 20.851H0.356621V20.9321H20.0162V20.851Z" fill="#D3E635"/>
<path d="M20.0162 20.928H0.356621V21.0091H20.0162V20.928Z" fill="#D3E633"/>
<path d="M20.0162 21.0091H0.356621V21.0902H20.0162V21.0091Z" fill="#D4E632"/>
<path d="M20.0162 21.0901H0.356621V21.1712H20.0162V21.0901Z" fill="#D4E630"/>
<path d="M20.0162 21.1712H0.356621V21.2523H20.0162V21.1712Z" fill="#D5E62F"/>
<path d="M20.0162 21.2482H0.356621V21.3292H20.0162V21.2482Z" fill="#D5E62E"/>
<path d="M20.0162 21.3293H0.356621V21.4103H20.0162V21.3293Z" fill="#D5E72C"/>
<path d="M20.0162 21.4103H0.356621V21.4914H20.0162V21.4103Z" fill="#D6E72B"/>
<path d="M20.0162 21.4873H0.356621V21.5684H20.0162V21.4873Z" fill="#D6E729"/>
<path d="M20.0162 21.5684H0.356621V21.6494H20.0162V21.5684Z" fill="#D7E728"/>
<path d="M20.0162 21.6494H0.356621V21.7305H20.0162V21.6494Z" fill="#D7E726"/>
<path d="M20.0162 21.7264H0.356621V21.8075H20.0162V21.7264Z" fill="#D8E725"/>
<path d="M20.0162 21.8074H0.356621V21.8885H20.0162V21.8074Z" fill="#D8E723"/>
<path d="M20.0162 21.8885H0.356621V21.9695H20.0162V21.8885Z" fill="#D8E722"/>
<path d="M20.0162 21.9655H0.356621V22.0466H20.0162V21.9655Z" fill="#D9E720"/>
<path d="M20.0162 22.0466H0.356621V22.1276H20.0162V22.0466Z" fill="#D9E71F"/>
<path d="M20.0162 22.1276H0.356621V22.2087H20.0162V22.1276Z" fill="#DAE71D"/>
<path d="M20.0162 22.2046H0.356621V22.2856H20.0162V22.2046Z" fill="#DAE71C"/>
<path d="M20.0162 22.2856H0.356621V22.3667H20.0162V22.2856Z" fill="#DBE81A"/>
<path d="M20.0162 22.3668H0.356621V22.4478H20.0162V22.3668Z" fill="#DBE819"/>
<path d="M20.0162 22.4437H0.356621V22.5248H20.0162V22.4437Z" fill="#DBE817"/>
<path d="M20.0162 22.5248H0.356621V22.6058H20.0162V22.5248Z" fill="#DCE815"/>
<path d="M20.0162 22.6058H0.356621V22.6869H20.0162V22.6058Z" fill="#DCE814"/>
<path d="M20.0162 22.6829H0.356621V22.7639H20.0162V22.6829Z" fill="#DDE812"/>
<path d="M20.0162 22.7639H0.356621V22.845H20.0162V22.7639Z" fill="#DDE811"/>
<path d="M20.0162 22.845H0.356621V22.926H20.0162V22.845Z" fill="#DEE80F"/>
<path d="M20.0162 22.9219H0.356621V23.003H20.0162V22.9219Z" fill="#DEE80D"/>
<path d="M20.0162 23.0031H0.356621V23.0841H20.0162V23.0031Z" fill="#DFE80C"/>
<path d="M20.0162 23.084H0.356621V23.1651H20.0162V23.084Z" fill="#DFE80A"/>
<path d="M20.0162 23.1611H0.356621V23.2421H20.0162V23.1611Z" fill="#E0E908"/>
<path d="M20.0162 23.2421H0.356621V23.3232H20.0162V23.2421Z" fill="#E0E907"/>
<path d="M20.0162 23.3231H0.356621V23.4042H20.0162V23.3231Z" fill="#E1E905"/>
<path d="M20.0162 23.4002H0.356621V23.4813H20.0162V23.4002Z" fill="#E1E903"/>
<path d="M20.0162 23.4812H0.356621V23.5623H20.0162V23.4812Z" fill="#E2E902"/>
<path d="M20.0162 23.5623H0.356621V23.6433H20.0162V23.5623Z" fill="#E2E900"/>
</g>
<path d="M17.8034 24H15.542C14.9313 23.9987 14.3342 23.8199 13.8233 23.4853C13.3124 23.1507 12.9099 22.6748 12.6646 22.1155C11.8417 22.2157 11.0134 22.2644 10.1844 22.2614C7.75279 22.2614 5.77913 21.8967 4.29585 21.1753C2.77546 20.4378 1.59402 19.1477 0.992907 17.5684C0.332319 15.9473 0 13.7791 0 11.1084C0 8.43769 0.332319 6.31408 0.992907 4.69706C1.59386 3.11671 2.77519 1.82522 4.29585 1.08612C5.78318 0.364745 7.76495 0 10.1844 0C12.6039 0 14.6424 0.364745 16.1175 1.08612C17.6356 1.82381 18.8122 3.11651 19.4043 4.69706C20.0446 6.31813 20.3728 8.47416 20.3728 11.1084C20.3728 13.7427 20.0446 15.9473 19.4043 17.5643C19.1809 18.1225 18.8867 18.6496 18.5289 19.1327L18.1479 19.6434L17.9088 19.0517C17.7629 18.6869 17.5035 18.0871 17.2361 17.3982C16.7741 16.2634 16.1378 14.7193 15.7325 13.8156L15.4164 13.0578V11.1084C15.463 9.62306 15.2993 8.13858 14.9301 6.69909C14.8199 6.26466 14.6235 5.85679 14.3527 5.49966C14.0819 5.14253 13.7422 4.84341 13.3536 4.62006C12.364 4.15619 11.2762 3.94058 10.1844 3.9919C9.10088 3.94018 8.02117 4.15446 7.03951 4.61601C6.65576 4.84317 6.32094 5.14427 6.05449 5.50186C5.78804 5.85945 5.59525 6.2664 5.48733 6.69909C5.11441 8.13795 4.94928 9.62277 4.99696 11.1084C4.95 12.602 5.1151 14.0948 5.48733 15.542C5.59053 15.9756 5.78103 16.3836 6.04721 16.741C6.31339 17.0985 6.64966 17.398 7.03546 17.6211C8.02115 18.0734 9.10119 18.2819 10.1844 18.229C10.4883 18.229 10.7842 18.229 11.0922 18.1884L9.5846 14.3992H11.5177C12.1703 14.4016 12.809 14.5876 13.3608 14.9359C13.9127 15.2842 14.3554 15.7808 14.6383 16.3688L15.2705 17.8804C15.6758 18.7801 16.3161 20.3323 16.7822 21.4711C17.2482 22.6099 17.5927 23.4975 17.5927 23.4975L17.8034 24ZM13.1145 21.3333L13.2725 21.7386C13.4557 22.1919 13.769 22.5808 14.1729 22.8563C14.5768 23.1318 15.0532 23.2815 15.542 23.2867H16.7579L16.1337 21.7508C15.6677 20.612 15.0314 19.0679 14.6302 18.1682L13.998 16.6646C13.7723 16.2018 13.4215 15.8114 12.9852 15.5378C12.549 15.2641 12.0448 15.1182 11.5299 15.1165H10.6505L12.1094 18.7883L11.6555 18.849C11.1721 18.9159 10.6846 18.9498 10.1966 18.9504C8.9955 19.0035 7.79949 18.7643 6.71124 18.2533C6.24342 17.9862 5.83431 17.6274 5.50841 17.1984C5.18252 16.7695 4.94653 16.2791 4.81459 15.7568C4.42262 14.2411 4.24796 12.6773 4.29585 11.1125C4.24584 9.55527 4.42194 7.99904 4.81864 6.4924C5.09294 5.44309 5.77208 4.54535 6.70719 3.99595C7.79316 3.47216 8.99203 3.22569 10.1966 3.27862C11.4075 3.22687 12.6126 3.47319 13.7062 3.99595C14.1752 4.26428 14.5862 4.62316 14.9153 5.05173C15.2443 5.4803 15.485 5.97001 15.6231 6.4924C16.0162 7.99967 16.1908 9.55556 16.1418 11.1125V12.92L16.4012 13.536C16.8065 14.4438 17.4428 15.9919 17.9088 17.1307C18.0628 17.5076 18.2087 17.8602 18.3141 18.1641C18.47 17.888 18.6054 17.6009 18.7194 17.305C19.3313 15.769 19.6393 13.69 19.6393 11.1125C19.6393 8.53496 19.3516 6.49645 18.7558 4.95238C18.2316 3.53424 17.1806 2.37293 15.8217 1.71023C14.4357 1.03749 12.5431 0.697062 10.2006 0.697062C7.85815 0.697062 6.01013 1.03749 4.62411 1.71023C3.26282 2.37588 2.20633 3.53526 1.6697 4.95238C1.04559 6.4843 0.729484 8.55117 0.729484 11.0963C0.729484 13.6413 1.04559 15.7528 1.6697 17.2847C2.20633 18.7018 3.26282 19.8612 4.62411 20.5268C6.01013 21.1996 7.86626 21.54 10.2006 21.54C11.0871 21.5448 11.9728 21.4866 12.8511 21.3658L13.1145 21.3333Z" fill="#424242"/>
</svg>
